<?xml version="1.0" standalone="no"?>
<!DOCTYPE svg PUBLIC "-//W3C//DTD SVG 20010904//EN"
 "http://www.w3.org/TR/2001/REC-SVG-20010904/DTD/svg10.dtd">
<svg version="1.0" xmlns="http://www.w3.org/2000/svg"
 width="316.000000pt" height="316.000000pt" viewBox="0 0 316.000000 316.000000"
 preserveAspectRatio="xMidYMid meet">
<metadata>
Created by potrace 1.14, written by Peter Selinger 2001-2017
</metadata>
<g transform="translate(0.000000,316.000000) scale(0.100000,-0.100000)"
fill="#000000" stroke="none">
<path d="M155 2870 c2 -27 1 -27 82 -33 88 -7 148 -36 177 -87 21 -35 21 -44
21 -1125 l0 -1090 -23 -47 c-30 -60 -83 -88 -179 -93 -37 -2 -71 -4 -74 -4 -3
-1 -5 -11 -4 -24 l2 -22 472 -2 472 -2 -3 27 c-2 20 -9 28 -28 30 -86 10 -132
25 -160 53 -53 53 -55 45 150 599 40 107 74 204 77 215 3 11 9 25 13 30 4 6
13 28 20 50 7 22 21 64 32 93 l19 52 323 0 323 0 58 -162 c31 -90 80 -226 107
-303 28 -77 56 -158 63 -180 7 -22 31 -90 53 -152 48 -131 58 -188 40 -222
-18 -35 -65 -59 -128 -68 -50 -8 -55 -11 -57 -35 l-2 -27 503 -1 503 -1 -3 23
c-1 13 -3 25 -3 28 -1 3 -30 5 -65 6 -48 0 -77 7 -119 27 -100 50 -92 -59 -92
1197 0 1080 0 1095 20 1130 28 48 98 81 186 88 38 2 69 7 70 11 0 3 2 14 4 24
3 16 -21 17 -423 15 -419 -3 -427 -3 -427 -23 0 -18 9 -21 78 -27 58 -5 91
-14 123 -33 82 -48 79 -20 82 -632 l3 -543 -178 0 -179 0 -58 153 c-60 159
-116 304 -143 372 -8 22 -75 195 -147 385 l-131 345 -54 0 -54 0 -19 -60 c-23
-72 -246 -756 -330 -1012 l-60 -183 -184 0 -185 0 3 543 c3 526 4 543 24 577
34 59 101 87 210 89 48 1 52 3 52 26 l0 25 -428 0 c-419 0 -427 0 -425 -20z
m1422 -570 c14 -35 38 -98 53 -140 15 -41 64 -174 109 -294 44 -121 81 -223
81 -228 0 -4 -124 -8 -275 -8 -151 0 -275 2 -275 4 0 4 61 204 155 506 37 118
72 231 77 250 16 54 20 56 36 14 8 -21 26 -68 39 -104z m-537 -820 c0 -5 -6
-27 -14 -47 -8 -21 -65 -193 -126 -383 -95 -293 -161 -470 -176 -470 -2 0 -4
205 -4 455 l0 455 160 0 c98 0 160 -4 160 -10z m1400 -382 l-1 -393 -34 90
c-20 50 -52 133 -71 185 -20 52 -45 115 -55 139 -11 24 -19 48 -19 53 0 6 -7
24 -15 41 -7 18 -32 79 -54 137 -22 58 -42 113 -46 123 -7 16 4 17 144 17
l151 0 0 -392z"/>
</g>
</svg>
